<svg xmlns="http://www.w3.org/2000/svg" viewBox="0 0 1200 680" preserveAspectRatio="xMidYMid slice">
  <defs>
    <linearGradient id="exBg" x1="0" y1="0" x2="0" y2="1">
      <stop offset="0" stop-color="#ECF1F7"></stop>
      <stop offset="1" stop-color="#DDE5EF"></stop>
    </linearGradient>
    <radialGradient id="exGlow" cx="0.5" cy="0.5" r="0.5">
      <stop offset="0" stop-color="#1E3A5F" stop-opacity="0.22"></stop>
      <stop offset="1" stop-color="#ECF1F7" stop-opacity="0"></stop>
    </radialGradient>
  </defs>
  <rect width="1200" height="680" fill="url(#exBg)"></rect>

  <rect x="200" y="200" width="800" height="380" fill="#F7FAFC" stroke="#CBD5E1"></rect>

  <polygon points="180,200 600,80 1020,200" fill="#DDE5EF" stroke="#CBD5E1"></polygon>

  <rect x="560" y="400" width="80" height="180" fill="#ECF1F7" stroke="#2556A8" stroke-width="1.5"></rect>
  <rect x="560" y="420" width="80" height="120" fill="url(#exGlow)"></rect>

  <g fill="#1E3A5F" opacity="0.35">
    <rect x="280" y="280" width="80" height="100"></rect>
    <rect x="400" y="280" width="80" height="100"></rect>
    <rect x="720" y="280" width="80" height="100"></rect>
    <rect x="840" y="280" width="80" height="100"></rect>
  </g>
  <g stroke="#ECF1F7" stroke-width="2" fill="none">
    <line x1="320" y1="280" x2="320" y2="380"></line>
    <line x1="280" y1="330" x2="360" y2="330"></line>
    <line x1="440" y1="280" x2="440" y2="380"></line>
    <line x1="400" y1="330" x2="480" y2="330"></line>
    <line x1="760" y1="280" x2="760" y2="380"></line>
    <line x1="720" y1="330" x2="800" y2="330"></line>
    <line x1="880" y1="280" x2="880" y2="380"></line>
    <line x1="840" y1="330" x2="920" y2="330"></line>
  </g>

  <g stroke="#1E3A5F" stroke-width="0.4" opacity="0.2">
    <line x1="200" y1="240" x2="1000" y2="240"></line>
    <line x1="200" y1="270" x2="1000" y2="270"></line>
    <line x1="200" y1="410" x2="1000" y2="410"></line>
    <line x1="200" y1="440" x2="1000" y2="440"></line>
    <line x1="200" y1="470" x2="1000" y2="470"></line>
    <line x1="200" y1="500" x2="1000" y2="500"></line>
    <line x1="200" y1="530" x2="1000" y2="530"></line>
    <line x1="200" y1="560" x2="1000" y2="560"></line>
  </g>
</svg>